<?xml version="1.0" encoding="UTF-8" standalone="no"?>
<!-- Created with Inkscape (http://www.inkscape.org/) -->

<svg
   xmlns:dc="http://purl.org/dc/elements/1.1/"
   xmlns:cc="http://creativecommons.org/ns#"
   xmlns:rdf="http://www.w3.org/1999/02/22-rdf-syntax-ns#"
   xmlns:svg="http://www.w3.org/2000/svg"
   xmlns="http://www.w3.org/2000/svg"
   xmlns:sodipodi="http://sodipodi.sourceforge.net/DTD/sodipodi-0.dtd"
   xmlns:inkscape="http://www.inkscape.org/namespaces/inkscape"
   width="98.664909mm"
   height="10.583064mm"
   viewBox="0 0 98.664907 10.583064"
   version="1.1"
   id="svg2092"
   inkscape:version="0.92.2 (5c3e80d, 2017-08-06)"
   sodipodi:docname="dr+tagw.svg">
  <defs
     id="defs2086" />
  <sodipodi:namedview
     id="base"
     pagecolor="#ffffff"
     bordercolor="#666666"
     borderopacity="1.0"
     inkscape:pageopacity="0.0"
     inkscape:pageshadow="2"
     inkscape:zoom="1.979899"
     inkscape:cx="234.36319"
     inkscape:cy="-21.693392"
     inkscape:document-units="mm"
     inkscape:current-layer="g1637"
     showgrid="false"
     showguides="true"
     inkscape:guide-bbox="true"
     inkscape:measure-start="0,0"
     inkscape:measure-end="0,0"
     inkscape:window-width="1680"
     inkscape:window-height="764"
     inkscape:window-x="6"
     inkscape:window-y="22"
     inkscape:window-maximized="0"
     fit-margin-top="0"
     fit-margin-left="0"
     fit-margin-right="0"
     fit-margin-bottom="0" />
  <metadata
     id="metadata2089">
    <rdf:RDF>
      <cc:Work
         rdf:about="">
        <dc:format>image/svg+xml</dc:format>
        <dc:type
           rdf:resource="http://purl.org/dc/dcmitype/StillImage" />
        <dc:title></dc:title>
      </cc:Work>
    </rdf:RDF>
  </metadata>
  <g
     inkscape:label="Layer 1"
     inkscape:groupmode="layer"
     id="layer1"
     transform="translate(-57.77496,-112.46993)">
    <g
       id="g1637"
       style="fill:#343434;fill-opacity:1">
      <g
         id="g1306"
         transform="translate(0,-1.3970644e-4)"
         style="fill:#ffffff">
        <path
           inkscape:connector-curvature="0"
           id="path1391"
           d="m 72.176043,118.91908 h 0.290592 c -0.163014,0.62372 -0.637884,1.28996 -1.7152,1.28996 -1.268681,0 -2.140455,-0.96392 -2.140455,-2.32474 0,-1.30411 0.864687,-2.28929 2.055405,-2.28929 0.545744,0 0.708759,0.14883 1.126928,0.14883 0.07796,0 0.134665,0 0.269329,-0.0283 0.06379,0.404 0.163014,0.79382 0.347291,1.21906 h -0.418167 c -0.290591,-0.66621 -0.708761,-1.08438 -1.410434,-1.08438 -0.574094,0 -1.084403,0.5103 -1.084403,1.83568 0,1.28994 0.517396,2.23968 1.367908,2.23968 0.602447,0 1.070226,-0.29768 1.311206,-1.00645 z m 4.409622,-2.36015 v 0.22679 l -0.191365,0.0213 c -0.170102,0.0213 -0.290591,0.0992 -0.347292,0.25515 l -1.68685,4.47228 c -0.03544,0.078 -0.0567,0.12757 -0.219716,0.12757 -0.184277,0 -0.233889,-0.0496 -0.198453,-0.12757 0.120491,-0.24806 0.659148,-1.34664 0.659148,-1.41752 0,-0.14175 -0.864686,-2.04122 -1.29703,-3.05476 -0.07088,-0.16301 -0.141754,-0.24806 -0.255154,-0.25515 l -0.212628,-0.0213 v -0.22679 c 0.552832,0.0213 1.169453,0.0213 1.665586,0 v 0.22679 l -0.219716,0.0213 c -0.127577,0.007 -0.226802,0.0992 -0.163014,0.25515 l 0.871774,2.09085 0.772548,-2.09085 c 0.0567,-0.16301 -0.09214,-0.24098 -0.226801,-0.25515 l -0.21263,-0.0213 v -0.22679 c 0.403995,0.0213 0.765462,0.0213 1.261593,0 z m 2.50306,-0.0567 c 0.751284,0 1.516745,0.60952 1.516745,1.87112 0,1.21907 -0.800899,1.8286 -1.523834,1.8286 -0.595359,0 -0.730023,-0.39691 -1.070228,-0.39691 -0.177189,0 -0.311854,0.10632 -0.361468,0.30477 h -0.134664 c -0.113402,0 -0.163014,-0.0638 -0.163014,-0.1701 v -3.84148 c 0,-0.24806 -0.155928,-0.31185 -0.432344,-0.26933 v -0.22681 c 0.623709,-0.1134 0.900124,-0.38982 1.070228,-0.38982 0.113401,0 0.163014,0.0638 0.163014,0.20554 v 1.50966 c 0.177191,-0.20554 0.481957,-0.42524 0.935565,-0.42524 z m -0.08505,3.46583 c 0.53157,0 0.737112,-0.50322 0.737112,-1.39626 0,-1.04896 -0.290593,-1.81443 -0.843425,-1.81443 -0.333119,0 -0.595359,0.24097 -0.744199,0.44652 v 1.97744 c 0.01418,0.35438 0.425255,0.78673 0.850512,0.78673 z m 5.040419,-0.63788 c 0.07088,0 0.09923,0.0709 0.04962,0.16301 -0.191366,0.3969 -0.574095,0.6875 -1.190717,0.6875 -0.94974,0 -1.7152,-0.64498 -1.7152,-1.84987 0,-1.17654 0.793811,-1.82859 1.630148,-1.82859 0.815075,0 1.460046,0.56699 1.460046,1.46004 0,0.26932 -0.106313,0.44652 -0.38273,0.44652 h -1.856952 c 0.0071,0.89304 0.32603,1.53092 0.971002,1.53092 0.361467,0 0.616621,-0.15593 0.800898,-0.50322 0.03544,-0.0638 0.0567,-0.10631 0.134666,-0.10631 z m -0.545745,-1.19072 c 0,-0.87179 -0.191365,-1.39627 -0.68041,-1.39627 -0.503219,0 -0.772547,0.52448 -0.779636,1.39627 z m 3.516585,-1.65141 c 0.347293,0 0.581184,0.18426 0.581184,0.43234 0,0.24806 -0.177191,0.38981 -0.368557,0.38981 -0.326029,0 -0.318941,-0.2835 -0.623709,-0.2835 -0.411079,0 -0.567008,0.52449 -0.623708,0.6875 v 1.90657 c 0,0.17718 0.198453,0.23389 0.432344,0.26224 v 0.2268 c -0.552834,-0.0284 -1.105666,-0.0284 -1.658499,0 v -0.2268 c 0.240979,-0.0284 0.432343,-0.0851 0.432343,-0.26224 v -2.25387 c 0,-0.24806 -0.155927,-0.30477 -0.432343,-0.26933 v -0.2268 c 0.623708,-0.1134 0.893037,-0.39689 1.056052,-0.39689 0.12049,0 0.191366,0.085 0.170103,0.2197 l -0.106314,0.70877 c 0.255154,-0.58119 0.58827,-0.9143 1.141104,-0.9143 z m 4.09068,-0.65206 0.09923,0.80089 h -0.248065 l -0.07797,-0.14883 c -0.20554,-0.36856 -0.382729,-0.51739 -0.751284,-0.51739 h -0.73711 c -0.0567,0 -0.08505,0.0284 -0.08505,0.0851 v 1.67267 h 0.843426 c 0.354379,0 0.432344,-0.16302 0.496131,-0.45362 h 0.212617 c -0.03544,0.40401 -0.03544,0.77256 0,1.16947 h -0.212628 c -0.06379,-0.2835 -0.141752,-0.45361 -0.496131,-0.45361 h -0.843426 v 1.63724 c 0,0.17718 0.120489,0.2268 0.496134,0.25515 v 0.2268 c -0.609534,-0.0213 -1.226157,-0.0213 -1.835691,0 v -0.2268 c 0.382732,-0.0284 0.503221,-0.078 0.503221,-0.25515 v -3.43749 c 0,-0.17719 -0.120489,-0.2268 -0.503221,-0.25515 v -0.22682 h 3.019319 c 0.09214,0 0.106315,0.0213 0.120489,0.12759 z m 2.290429,0.66624 c 0.815076,0 1.658498,0.60952 1.658498,1.80024 0,1.22616 -0.843422,1.87822 -1.644322,1.87822 -0.815074,0 -1.658498,-0.65206 -1.658498,-1.82151 0,-1.24743 0.843424,-1.85695 1.644322,-1.85695 z m 0.786725,2.00578 c 0,-1.05605 -0.340206,-1.76482 -0.885952,-1.76482 -0.432343,0 -0.673321,0.4607 -0.673321,1.41045 0,1.06313 0.340204,1.78607 0.878863,1.78607 0.439431,0 0.68041,-0.47487 0.68041,-1.4317 z m 3.608723,-2.01996 c 0.347292,0 0.581184,0.18426 0.581184,0.43234 0,0.24806 -0.17719,0.38981 -0.368556,0.38981 -0.32603,0 -0.318942,-0.2835 -0.623708,-0.2835 -0.411081,0 -0.567008,0.52449 -0.62371,0.6875 v 1.90657 c 0,0.17718 0.198453,0.23389 0.432344,0.26224 v 0.2268 c -0.552833,-0.0284 -1.105665,-0.0284 -1.658499,0 v -0.2268 c 0.240979,-0.0284 0.432344,-0.0851 0.432344,-0.26224 v -2.25387 c 0,-0.24806 -0.155927,-0.30477 -0.432344,-0.26933 v -0.2268 c 0.623708,-0.1134 0.893039,-0.39689 1.056053,-0.39689 0.120489,0 0.191365,0.085 0.170102,0.2197 l -0.106313,0.70877 c 0.255154,-0.58119 0.588271,-0.9143 1.141103,-0.9143 z m 2.857439,3.41622 c -0.13467,0.12758 -0.39691,0.25515 -0.687499,0.25515 -0.538658,0 -0.907212,-0.27641 -0.907212,-0.97809 v -2.36017 H 98.74945 c -0.04962,0 -0.07797,-0.0355 -0.07797,-0.0851 v -0.0992 c 0,-0.0496 0.02835,-0.078 0.07797,-0.078 0.481958,0 0.68041,-0.3402 0.758375,-0.96392 h 0.347292 v 0.96392 h 0.722933 c 0.0496,0 0.078,0.0284 0.078,0.078 v 0.0992 c 0,0.0496 -0.0284,0.0851 -0.078,0.0851 h -0.722933 v 2.49484 c 0,0.2835 0.06379,0.53157 0.354373,0.53157 0.19136,0 0.35438,-0.12049 0.43944,-0.2268 z m 2.74403,-3.41622 c 0.3473,0 0.58118,0.18426 0.58118,0.43234 0,0.24806 -0.17719,0.38981 -0.36855,0.38981 -0.32603,0 -0.31894,-0.2835 -0.62371,-0.2835 -0.41108,0 -0.567,0.52449 -0.62371,0.6875 v 1.90657 c 0,0.17718 0.19845,0.23389 0.43235,0.26224 v 0.2268 c -0.55285,-0.0284 -1.10567,-0.0284 -1.6585,0 v -0.2268 c 0.24098,-0.0284 0.43235,-0.0851 0.43235,-0.26224 v -2.25387 c 0,-0.24806 -0.15593,-0.30477 -0.43235,-0.26933 v -0.2268 c 0.62371,-0.1134 0.89303,-0.39689 1.05605,-0.39689 0.12048,0 0.19137,0.085 0.1701,0.2197 l -0.10632,0.70877 c 0.25517,-0.58119 0.58828,-0.9143 1.14111,-0.9143 z m 3.84263,2.84213 c 0.0709,0 0.0992,0.0709 0.0496,0.16301 -0.19137,0.3969 -0.57409,0.6875 -1.19072,0.6875 -0.94973,0 -1.71519,-0.64498 -1.71519,-1.84987 0,-1.17654 0.79381,-1.82859 1.63014,-1.82859 0.81508,0 1.46006,0.56699 1.46006,1.46004 0,0.26932 -0.10632,0.44652 -0.38275,0.44652 h -1.85694 c 0.007,0.89304 0.32604,1.53092 0.971,1.53092 0.36147,0 0.61662,-0.15593 0.8009,-0.50322 0.0355,-0.0638 0.0567,-0.10631 0.13466,-0.10631 z m -0.54576,-1.19072 c 0,-0.87179 -0.19136,-1.39627 -0.68041,-1.39627 -0.50322,0 -0.77255,0.52448 -0.77963,1.39627 z m 3.88514,0.99935 c 0,0.61662 -0.59536,1.05605 -1.12692,1.05605 -0.47487,0 -0.73712,-0.24806 -0.94975,-0.24806 -0.0992,0 -0.15593,0.0567 -0.16302,0.15592 h -0.2268 l -0.0851,-0.96391 h 0.1134 c 0.0922,0 0.1701,0.0142 0.19845,0.1134 0.10632,0.38982 0.64499,0.71585 1.02063,0.71585 0.32603,0 0.53156,-0.21971 0.53156,-0.5174 0,-0.38272 -0.33311,-0.54575 -0.82215,-0.79382 -0.49615,-0.24805 -1.04898,-0.57408 -1.04898,-1.19779 0,-0.53866 0.4607,-0.95682 1.07024,-0.95682 0.46778,0 0.62371,0.19844 0.80797,0.19844 0.0921,0 0.14885,-0.0496 0.17011,-0.14174 h 0.23389 l 0.0638,0.92847 h -0.12049 c -0.0921,0 -0.14176,-0.0284 -0.18428,-0.11341 -0.17719,-0.39691 -0.53865,-0.65915 -0.86468,-0.65915 -0.32603,0 -0.5174,0.23389 -0.5174,0.50323 0,0.33312 0.24807,0.49613 0.65207,0.69458 0.44652,0.21264 1.24741,0.53867 1.24741,1.22616 z m 3.07006,0 c 0,0.61662 -0.59535,1.05605 -1.12692,1.05605 -0.47487,0 -0.73711,-0.24806 -0.94974,-0.24806 -0.0992,0 -0.15593,0.0567 -0.16302,0.15592 h -0.2268 l -0.0851,-0.96391 h 0.1134 c 0.0921,0 0.1701,0.0142 0.19845,0.1134 0.10632,0.38982 0.64497,0.71585 1.02062,0.71585 0.32603,0 0.53156,-0.21971 0.53156,-0.5174 0,-0.38272 -0.33311,-0.54575 -0.82215,-0.79382 -0.49613,-0.24805 -1.04897,-0.57408 -1.04897,-1.19779 0,-0.53866 0.4607,-0.95682 1.07023,-0.95682 0.46778,0 0.62371,0.19844 0.80798,0.19844 0.0921,0 0.14885,-0.0496 0.17011,-0.14174 h 0.23389 l 0.0638,0.92847 h -0.12049 c -0.0922,0 -0.14175,-0.0284 -0.18428,-0.11341 -0.17719,-0.39691 -0.53865,-0.65915 -0.86468,-0.65915 -0.32604,0 -0.5174,0.23389 -0.5174,0.50323 0,0.33312 0.24805,0.49613 0.65206,0.69458 0.44652,0.21264 1.24741,0.53867 1.24741,1.22616 z"
           style="fill:#ffffff;fill-opacity:1;stroke-width:0.15407832" />
        <rect
           ry="0.28639621"
           y="112.47007"
           x="57.77496"
           height="1.125857"
           width="1.125857"
           id="rect1393"
           style="opacity:1;fill:#ffffff;fill-opacity:1;stroke:none;stroke-width:0.54041135;stroke-linecap:butt;stroke-linejoin:miter;stroke-miterlimit:4;stroke-dasharray:none;stroke-dashoffset:0;stroke-opacity:1;paint-order:normal" />
        <rect
           ry="0.28639621"
           y="112.47007"
           x="60.927357"
           height="1.125857"
           width="1.125857"
           id="rect1395"
           style="opacity:1;fill:#ffffff;fill-opacity:1;stroke:none;stroke-width:0.54041135;stroke-linecap:butt;stroke-linejoin:miter;stroke-miterlimit:4;stroke-dasharray:none;stroke-dashoffset:0;stroke-opacity:1;paint-order:normal" />
        <rect
           ry="0.28639621"
           y="112.47007"
           x="64.079765"
           height="1.125857"
           width="1.125857"
           id="rect1397"
           style="opacity:1;fill:#ffffff;fill-opacity:1;stroke:none;stroke-width:0.54041135;stroke-linecap:butt;stroke-linejoin:miter;stroke-miterlimit:4;stroke-dasharray:none;stroke-dashoffset:0;stroke-opacity:1;paint-order:normal" />
        <rect
           style="opacity:1;fill:#ffffff;fill-opacity:1;stroke:none;stroke-width:0.54041135;stroke-linecap:butt;stroke-linejoin:miter;stroke-miterlimit:4;stroke-dasharray:none;stroke-dashoffset:0;stroke-opacity:1;paint-order:normal"
           id="rect1399"
           width="1.125857"
           height="1.125857"
           x="57.77496"
           y="114.04628"
           ry="0.28639621" />
        <rect
           ry="0.28639621"
           y="114.04628"
           x="59.351166"
           height="1.125857"
           width="1.125857"
           id="rect1401"
           style="opacity:1;fill:#ffffff;fill-opacity:1;stroke:none;stroke-width:0.54041135;stroke-linecap:butt;stroke-linejoin:miter;stroke-miterlimit:4;stroke-dasharray:none;stroke-dashoffset:0;stroke-opacity:1;paint-order:normal" />
        <rect
           style="opacity:1;fill:#ffffff;fill-opacity:1;stroke:none;stroke-width:0.54041135;stroke-linecap:butt;stroke-linejoin:miter;stroke-miterlimit:4;stroke-dasharray:none;stroke-dashoffset:0;stroke-opacity:1;paint-order:normal"
           id="rect1403"
           width="1.125857"
           height="1.125857"
           x="60.927357"
           y="114.04628"
           ry="0.28639621" />
        <rect
           ry="0.28639621"
           y="114.04628"
           x="62.503563"
           height="1.125857"
           width="1.125857"
           id="rect1405"
           style="opacity:1;fill:#ffffff;fill-opacity:1;stroke:none;stroke-width:0.54041135;stroke-linecap:butt;stroke-linejoin:miter;stroke-miterlimit:4;stroke-dasharray:none;stroke-dashoffset:0;stroke-opacity:1;paint-order:normal" />
        <rect
           style="opacity:1;fill:#ffffff;fill-opacity:1;stroke:none;stroke-width:0.54041135;stroke-linecap:butt;stroke-linejoin:miter;stroke-miterlimit:4;stroke-dasharray:none;stroke-dashoffset:0;stroke-opacity:1;paint-order:normal"
           id="rect1407"
           width="1.125857"
           height="1.125857"
           x="64.079765"
           y="114.04628"
           ry="0.28639621" />
        <rect
           style="opacity:1;fill:#ffffff;fill-opacity:1;stroke:none;stroke-width:0.54041135;stroke-linecap:butt;stroke-linejoin:miter;stroke-miterlimit:4;stroke-dasharray:none;stroke-dashoffset:0;stroke-opacity:1;paint-order:normal"
           id="rect1409"
           width="1.125857"
           height="1.125857"
           x="59.351166"
           y="115.62247"
           ry="0.28639621" />
        <rect
           ry="0.28639621"
           y="115.62247"
           x="60.927357"
           height="1.125857"
           width="1.125857"
           id="rect1411"
           style="opacity:1;fill:#ffffff;fill-opacity:1;stroke:none;stroke-width:0.54041135;stroke-linecap:butt;stroke-linejoin:miter;stroke-miterlimit:4;stroke-dasharray:none;stroke-dashoffset:0;stroke-opacity:1;paint-order:normal" />
        <rect
           style="opacity:1;fill:#ffffff;fill-opacity:1;stroke:none;stroke-width:0.54041135;stroke-linecap:butt;stroke-linejoin:miter;stroke-miterlimit:4;stroke-dasharray:none;stroke-dashoffset:0;stroke-opacity:1;paint-order:normal"
           id="rect1413"
           width="1.125857"
           height="1.125857"
           x="62.503563"
           y="115.62247"
           ry="0.28639621" />
        <rect
           ry="0.28639621"
           y="117.19866"
           x="59.351166"
           height="1.125857"
           width="1.125857"
           id="rect1415"
           style="opacity:1;fill:#ffffff;fill-opacity:1;stroke:none;stroke-width:0.54041135;stroke-linecap:butt;stroke-linejoin:miter;stroke-miterlimit:4;stroke-dasharray:none;stroke-dashoffset:0;stroke-opacity:1;paint-order:normal" />
        <rect
           style="opacity:1;fill:#ffffff;fill-opacity:1;stroke:none;stroke-width:0.54041135;stroke-linecap:butt;stroke-linejoin:miter;stroke-miterlimit:4;stroke-dasharray:none;stroke-dashoffset:0;stroke-opacity:1;paint-order:normal"
           id="rect1417"
           width="1.125857"
           height="1.125857"
           x="60.927357"
           y="117.19866"
           ry="0.28639621" />
        <rect
           ry="0.28639621"
           y="117.19866"
           x="62.503563"
           height="1.125857"
           width="1.125857"
           id="rect1419"
           style="opacity:1;fill:#ffffff;fill-opacity:1;stroke:none;stroke-width:0.54041135;stroke-linecap:butt;stroke-linejoin:miter;stroke-miterlimit:4;stroke-dasharray:none;stroke-dashoffset:0;stroke-opacity:1;paint-order:normal" />
        <rect
           style="opacity:1;fill:#ffffff;fill-opacity:1;stroke:none;stroke-width:0.54041135;stroke-linecap:butt;stroke-linejoin:miter;stroke-miterlimit:4;stroke-dasharray:none;stroke-dashoffset:0;stroke-opacity:1;paint-order:normal"
           id="rect1421"
           width="1.125857"
           height="1.125857"
           x="59.351166"
           y="118.77486"
           ry="0.28639621" />
        <rect
           ry="0.28639621"
           y="118.77486"
           x="60.927357"
           height="1.125857"
           width="1.125857"
           id="rect1423"
           style="opacity:1;fill:#ffffff;fill-opacity:1;stroke:none;stroke-width:0.54041135;stroke-linecap:butt;stroke-linejoin:miter;stroke-miterlimit:4;stroke-dasharray:none;stroke-dashoffset:0;stroke-opacity:1;paint-order:normal" />
        <rect
           style="opacity:1;fill:#ffffff;fill-opacity:1;stroke:none;stroke-width:0.54041135;stroke-linecap:butt;stroke-linejoin:miter;stroke-miterlimit:4;stroke-dasharray:none;stroke-dashoffset:0;stroke-opacity:1;paint-order:normal"
           id="rect1425"
           width="1.125857"
           height="1.125857"
           x="62.503563"
           y="118.77486"
           ry="0.28639621" />
        <rect
           style="opacity:1;fill:#ffffff;fill-opacity:1;stroke:none;stroke-width:0.54041135;stroke-linecap:butt;stroke-linejoin:miter;stroke-miterlimit:4;stroke-dasharray:none;stroke-dashoffset:0;stroke-opacity:1;paint-order:normal"
           id="rect1427"
           width="1.125857"
           height="1.125857"
           x="57.77496"
           y="120.35108"
           ry="0.28639621" />
        <rect
           ry="0.28639621"
           y="120.35108"
           x="59.351166"
           height="1.125857"
           width="1.125857"
           id="rect1429"
           style="opacity:1;fill:#ffffff;fill-opacity:1;stroke:none;stroke-width:0.54041135;stroke-linecap:butt;stroke-linejoin:miter;stroke-miterlimit:4;stroke-dasharray:none;stroke-dashoffset:0;stroke-opacity:1;paint-order:normal" />
        <rect
           style="opacity:1;fill:#ffffff;fill-opacity:1;stroke:none;stroke-width:0.54041135;stroke-linecap:butt;stroke-linejoin:miter;stroke-miterlimit:4;stroke-dasharray:none;stroke-dashoffset:0;stroke-opacity:1;paint-order:normal"
           id="rect1431"
           width="1.125857"
           height="1.125857"
           x="60.927357"
           y="120.35108"
           ry="0.28639621" />
        <rect
           ry="0.28639621"
           y="120.35108"
           x="62.503563"
           height="1.125857"
           width="1.125857"
           id="rect1433"
           style="opacity:1;fill:#ffffff;fill-opacity:1;stroke:none;stroke-width:0.54041135;stroke-linecap:butt;stroke-linejoin:miter;stroke-miterlimit:4;stroke-dasharray:none;stroke-dashoffset:0;stroke-opacity:1;paint-order:normal" />
        <rect
           style="opacity:1;fill:#ffffff;fill-opacity:1;stroke:none;stroke-width:0.54041135;stroke-linecap:butt;stroke-linejoin:miter;stroke-miterlimit:4;stroke-dasharray:none;stroke-dashoffset:0;stroke-opacity:1;paint-order:normal"
           id="rect1435"
           width="1.125857"
           height="1.125857"
           x="64.079765"
           y="120.35108"
           ry="0.28639621" />
        <rect
           ry="0.28639621"
           y="121.92728"
           x="57.77496"
           height="1.125857"
           width="1.125857"
           id="rect1437"
           style="opacity:1;fill:#ffffff;fill-opacity:1;stroke:none;stroke-width:0.54041135;stroke-linecap:butt;stroke-linejoin:miter;stroke-miterlimit:4;stroke-dasharray:none;stroke-dashoffset:0;stroke-opacity:1;paint-order:normal" />
        <rect
           style="opacity:1;fill:#ffffff;fill-opacity:1;stroke:none;stroke-width:0.54041135;stroke-linecap:butt;stroke-linejoin:miter;stroke-miterlimit:4;stroke-dasharray:none;stroke-dashoffset:0;stroke-opacity:1;paint-order:normal"
           id="rect1439"
           width="1.125857"
           height="1.125857"
           x="59.351166"
           y="121.92728"
           ry="0.28639621" />
        <rect
           ry="0.28639621"
           y="121.92728"
           x="60.927357"
           height="1.125857"
           width="1.125857"
           id="rect1441"
           style="opacity:1;fill:#ffffff;fill-opacity:1;stroke:none;stroke-width:0.54041135;stroke-linecap:butt;stroke-linejoin:miter;stroke-miterlimit:4;stroke-dasharray:none;stroke-dashoffset:0;stroke-opacity:1;paint-order:normal" />
        <rect
           style="opacity:1;fill:#ffffff;fill-opacity:1;stroke:none;stroke-width:0.54041135;stroke-linecap:butt;stroke-linejoin:miter;stroke-miterlimit:4;stroke-dasharray:none;stroke-dashoffset:0;stroke-opacity:1;paint-order:normal"
           id="rect1443"
           width="1.125857"
           height="1.125857"
           x="62.503563"
           y="121.92728"
           ry="0.28639621" />
        <rect
           ry="0.28639621"
           y="121.92728"
           x="64.079765"
           height="1.125857"
           width="1.125857"
           id="rect1445"
           style="opacity:1;fill:#ffffff;fill-opacity:1;stroke:none;stroke-width:0.54041135;stroke-linecap:butt;stroke-linejoin:miter;stroke-miterlimit:4;stroke-dasharray:none;stroke-dashoffset:0;stroke-opacity:1;paint-order:normal" />
        <path
           inkscape:connector-curvature="0"
           id="path1447"
           style="font-style:normal;font-variant:normal;font-weight:normal;font-stretch:normal;font-size:medium;line-height:125%;font-family:Roboto;-inkscape-font-specification:Roboto;letter-spacing:0px;word-spacing:0px;fill:#ffffff;fill-opacity:1;stroke:none;stroke-width:0.02582822px;stroke-linecap:butt;stroke-linejoin:miter;stroke-opacity:1"
           d="m 114.21327,115.29195 h -0.23608 v 0.65479 h -0.0964 v -0.65479 h -0.23559 v -0.0797 h 0.56802 z" />
        <path
           inkscape:connector-curvature="0"
           id="path1449"
           style="font-style:normal;font-variant:normal;font-weight:normal;font-stretch:normal;font-size:medium;line-height:125%;font-family:Roboto;-inkscape-font-specification:Roboto;letter-spacing:0px;word-spacing:0px;fill:#ffffff;fill-opacity:1;stroke:none;stroke-width:0.02582822px;stroke-linecap:butt;stroke-linejoin:miter;stroke-opacity:1"
           d="m 114.44836,115.21225 0.24011,0.5993 0.24012,-0.5993 h 0.12561 v 0.73449 h -0.0969 v -0.28603 l 0.009,-0.30873 -0.24113,0.59476 h -0.0742 l -0.24062,-0.59324 0.01,0.30721 v 0.28603 h -0.0969 v -0.73449 z" />
      </g>
      <path
         inkscape:connector-curvature="0"
         id="path1453"
         d="m 118.76327,112.7494 v 10.02412 h 0.14321 V 112.7494 Z"
         style="color:#000000;font-style:normal;font-variant:normal;font-weight:normal;font-stretch:normal;font-size:medium;line-height:normal;font-family:sans-serif;font-variant-ligatures:normal;font-variant-position:normal;font-variant-caps:normal;font-variant-numeric:normal;font-variant-alternates:normal;font-feature-settings:normal;text-indent:0;text-align:start;text-decoration:none;text-decoration-line:none;text-decoration-style:solid;text-decoration-color:#000000;letter-spacing:normal;word-spacing:normal;text-transform:none;writing-mode:lr-tb;direction:ltr;text-orientation:mixed;dominant-baseline:auto;baseline-shift:baseline;text-anchor:start;white-space:normal;shape-padding:0;clip-rule:nonzero;display:inline;overflow:visible;visibility:visible;opacity:1;isolation:auto;mix-blend-mode:normal;color-interpolation:sRGB;color-interpolation-filters:linearRGB;solid-color:#000000;solid-opacity:1;vector-effect:none;fill:#ffffff;fill-opacity:1;fill-rule:evenodd;stroke:none;stroke-width:0.17353271px;stroke-linecap:butt;stroke-linejoin:miter;stroke-miterlimit:4;stroke-dasharray:none;stroke-dashoffset:0;stroke-opacity:1;color-rendering:auto;image-rendering:auto;shape-rendering:auto;text-rendering:auto;enable-background:accumulate" />
      <text
         xml:space="preserve"
         style="font-style:normal;font-variant:normal;font-weight:500;font-stretch:normal;font-size:10.58333302px;line-height:1;font-family:Roboto;-inkscape-font-specification:'Roboto Medium';letter-spacing:0px;word-spacing:0px;fill:#ffffff;fill-opacity:1;stroke:none;stroke-width:0.26458332"
         x="128.33411"
         y="135.08026"
         id="text1179"><tspan
           sodipodi:role="line"
           id="tspan1177"
           x="128.33411"
           y="143.01776"
           style="fill:#ffffff;stroke-width:0.26458332" /></text>
      <text
         xml:space="preserve"
         style="font-style:normal;font-variant:normal;font-weight:500;font-stretch:normal;font-size:10.58333302px;line-height:1;font-family:Roboto;-inkscape-font-specification:'Roboto Medium';letter-spacing:0px;word-spacing:0px;fill:#ffffff;fill-opacity:1;stroke:none;stroke-width:0.26458332"
         x="97.063576"
         y="87.37265"
         id="text5257"><tspan
           sodipodi:role="line"
           id="tspan5255"
           x="97.063576"
           y="95.31015"
           style="fill:#ffffff;stroke-width:0.26458332" /></text>
      <flowRoot
         xml:space="preserve"
         id="flowRoot880"
         style="font-style:normal;font-variant:normal;font-weight:500;font-stretch:normal;font-size:40px;line-height:1;font-family:Roboto;-inkscape-font-specification:'Roboto Medium';letter-spacing:0px;word-spacing:0px;fill:#ffffff;fill-opacity:1;stroke:none"><flowRegion
           id="flowRegion882"
           style="fill:#ffffff"><rect
             id="rect884"
             width="156.78572"
             height="86.785713"
             x="227.85715"
             y="52.142857"
             style="fill:#ffffff" /></flowRegion><flowPara
           id="flowPara886" /></flowRoot>      <g
         aria-label="Cyber Insurance For
Small Business"
         style="font-style:normal;font-variant:normal;font-weight:500;font-stretch:normal;font-size:3.88055563px;line-height:1.14999998;font-family:Roboto;-inkscape-font-specification:'Roboto Medium';letter-spacing:0px;word-spacing:0px;fill:#000000;fill-opacity:1;stroke:none;stroke-width:0.26458332"
         id="text1011">
        <path
           d="m 124.75098,116.10616 q -0.0474,0.4358 -0.31264,0.66697 -0.26338,0.23117 -0.70297,0.23117 -0.30696,0 -0.54381,-0.15348 -0.23495,-0.15348 -0.3638,-0.43391 -0.12885,-0.28233 -0.13074,-0.64424 v -0.35811 q 0,-0.36759 0.12884,-0.65182 0.12885,-0.28422 0.36949,-0.43769 0.24254,-0.15538 0.55707,-0.15538 0.44339,0 0.69919,0.24064 0.25769,0.23875 0.29937,0.66129 h -0.23495 q -0.0872,-0.70297 -0.76361,-0.70297 -0.37517,0 -0.59875,0.28043 -0.2217,0.28043 -0.2217,0.77497 v 0.33728 q 0,0.47749 0.21601,0.76171 0.2179,0.28422 0.58739,0.28422 0.3657,0 0.55139,-0.17433 0.18569,-0.17621 0.22927,-0.52675 z"
           style="font-style:normal;font-variant:normal;font-weight:300;font-stretch:normal;font-family:Roboto;-inkscape-font-specification:'Roboto Light';fill:#ffffff;stroke-width:0.26458332"
           id="path1015"
           inkscape:connector-curvature="0" />
        <path
           d="m 125.91818,116.64049 0.59876,-1.72427 h 0.24443 l -0.8754,2.39882 -0.0455,0.10611 q -0.16864,0.37328 -0.52108,0.37328 -0.0815,0 -0.17432,-0.0265 l -0.002,-0.18758 0.11748,0.0114 q 0.16674,0 0.26906,-0.0834 0.10421,-0.0815 0.17621,-0.28232 l 0.10043,-0.27664 -0.77308,-2.03313 h 0.24822 z"
           style="font-style:normal;font-variant:normal;font-weight:300;font-stretch:normal;font-family:Roboto;-inkscape-font-specification:'Roboto Light';fill:#ffffff;stroke-width:0.26458332"
           id="path1017"
           inkscape:connector-curvature="0" />
        <path
           d="m 128.76039,115.96215 q 0,0.47939 -0.21222,0.76172 -0.21222,0.28043 -0.57034,0.28043 -0.42822,0 -0.64802,-0.31833 l -0.009,0.28043 h -0.21222 v -2.91042 h 0.22548 v 1.15773 q 0.21601,-0.33538 0.64044,-0.33538 0.36381,0 0.57413,0.27853 0.21222,0.27664 0.21222,0.77119 z m -0.22738,-0.0398 q 0,-0.40548 -0.15727,-0.62528 -0.15727,-0.22169 -0.44338,-0.22169 -0.2179,0 -0.36949,0.108 -0.15158,0.10611 -0.22927,0.31264 v 0.92467 q 0.17053,0.38654 0.60255,0.38654 0.28043,0 0.4377,-0.2217 0.15916,-0.22169 0.15916,-0.66318 z"
           style="font-style:normal;font-variant:normal;font-weight:300;font-stretch:normal;font-family:Roboto;-inkscape-font-specification:'Roboto Light';fill:#ffffff;stroke-width:0.26458332"
           id="path1019"
           inkscape:connector-curvature="0" />
        <path
           d="m 130.05643,117.0043 q -0.26148,0 -0.4737,-0.12885 -0.21032,-0.12885 -0.3278,-0.35812 -0.11748,-0.23116 -0.11748,-0.51728 v -0.0815 q 0,-0.29558 0.11369,-0.53244 0.11558,-0.23685 0.32022,-0.37138 0.20464,-0.13642 0.44339,-0.13642 0.37327,0 0.59117,0.2558 0.2198,0.2539 0.2198,0.69539 v 0.12695 h -1.46279 v 0.0436 q 0,0.34864 0.19896,0.58171 0.20085,0.23116 0.50402,0.23116 0.1819,0 0.32022,-0.0663 0.14021,-0.0663 0.2539,-0.21221 l 0.14211,0.108 q -0.25011,0.36191 -0.72571,0.36191 z m -0.0417,-1.9327 q -0.2558,0 -0.43202,0.18758 -0.17432,0.18759 -0.21222,0.50402 h 1.22973 v -0.0246 q -0.009,-0.29559 -0.16864,-0.48128 -0.15916,-0.18569 -0.41685,-0.18569 z"
           style="font-style:normal;font-variant:normal;font-weight:300;font-stretch:normal;font-family:Roboto;-inkscape-font-specification:'Roboto Light';fill:#ffffff;stroke-width:0.26458332"
           id="path1021"
           inkscape:connector-curvature="0" />
        <path
           d="m 132.2184,115.10949 q -0.072,-0.0133 -0.15348,-0.0133 -0.21222,0 -0.36001,0.11937 -0.1459,0.11748 -0.20843,0.34296 v 1.40784 H 131.271 v -2.05018 h 0.22169 l 0.004,0.32591 q 0.18001,-0.3638 0.57792,-0.3638 0.0947,0 0.14969,0.0246 z"
           style="font-style:normal;font-variant:normal;font-weight:300;font-stretch:normal;font-family:Roboto;-inkscape-font-specification:'Roboto Light';fill:#ffffff;stroke-width:0.26458332"
           id="path1023"
           inkscape:connector-curvature="0" />
        <path
           d="m 133.8593,116.9664 h -0.23306 v -2.75883 h 0.23306 z"
           style="font-style:normal;font-variant:normal;font-weight:300;font-stretch:normal;font-family:Roboto;-inkscape-font-specification:'Roboto Light';fill:#ffffff;stroke-width:0.26458332"
           id="path1025"
           inkscape:connector-curvature="0" />
        <path
           d="m 134.76881,114.91622 0.008,0.35054 q 0.11559,-0.18948 0.28801,-0.28801 0.17243,-0.10042 0.38086,-0.10042 0.3297,0 0.49075,0.18569 0.16106,0.18569 0.16296,0.55707 v 1.34531 h -0.22548 v -1.3472 q -0.002,-0.27475 -0.11748,-0.40928 -0.11369,-0.13453 -0.3657,-0.13453 -0.21032,0 -0.37328,0.13263 -0.16105,0.13074 -0.23874,0.35433 v 1.40405 h -0.22548 v -2.05018 z"
           style="font-style:normal;font-variant:normal;font-weight:300;font-stretch:normal;font-family:Roboto;-inkscape-font-specification:'Roboto Light';fill:#ffffff;stroke-width:0.26458332"
           id="path1027"
           inkscape:connector-curvature="0" />
        <path
           d="m 137.91039,116.44533 q 0,-0.16864 -0.13643,-0.27096 -0.13453,-0.10232 -0.40738,-0.15916 -0.27285,-0.0587 -0.42444,-0.13264 -0.14969,-0.0758 -0.22358,-0.18379 -0.072,-0.10801 -0.072,-0.26149 0,-0.24253 0.20275,-0.3998 0.20274,-0.15916 0.51917,-0.15916 0.34296,0 0.5495,0.17053 0.20843,0.16864 0.20843,0.44149 h -0.22738 q 0,-0.18001 -0.15159,-0.29938 -0.14968,-0.11937 -0.37896,-0.11937 -0.22358,0 -0.36001,0.10042 -0.13453,0.0985 -0.13453,0.2577 0,0.15347 0.11179,0.23874 0.11369,0.0834 0.41118,0.15348 0.29938,0.0701 0.44717,0.14969 0.14969,0.0796 0.22169,0.19137 0.072,0.1118 0.072,0.27096 0,0.25959 -0.21032,0.41496 -0.20843,0.15538 -0.5457,0.15538 -0.35812,0 -0.58171,-0.17243 -0.22169,-0.17432 -0.22169,-0.4396 h 0.22738 q 0.0133,0.19896 0.16674,0.31075 0.15537,0.1099 0.40928,0.1099 0.23685,0 0.38275,-0.10421 0.1459,-0.10422 0.1459,-0.26338 z"
           style="font-style:normal;font-variant:normal;font-weight:300;font-stretch:normal;font-family:Roboto;-inkscape-font-specification:'Roboto Light';fill:#ffffff;stroke-width:0.26458332"
           id="path1029"
           inkscape:connector-curvature="0" />
        <path
           d="m 139.96435,116.70681 q -0.20463,0.29749 -0.6537,0.29749 -0.3278,0 -0.49834,-0.18948 -0.17053,-0.19138 -0.17432,-0.56466 v -1.33394 h 0.22548 v 1.30552 q 0,0.5855 0.4737,0.5855 0.49265,0 0.62339,-0.40739 v -1.48363 h 0.22738 v 2.05018 h -0.2198 z"
           style="font-style:normal;font-variant:normal;font-weight:300;font-stretch:normal;font-family:Roboto;-inkscape-font-specification:'Roboto Light';fill:#ffffff;stroke-width:0.26458332"
           id="path1031"
           inkscape:connector-curvature="0" />
        <path
           d="m 141.72273,115.10949 q -0.072,-0.0133 -0.15348,-0.0133 -0.21222,0 -0.36001,0.11937 -0.1459,0.11748 -0.20843,0.34296 v 1.40784 h -0.22548 v -2.05018 h 0.22169 l 0.004,0.32591 q 0.18001,-0.3638 0.57792,-0.3638 0.0947,0 0.14969,0.0246 z"
           style="font-style:normal;font-variant:normal;font-weight:300;font-stretch:normal;font-family:Roboto;-inkscape-font-specification:'Roboto Light';fill:#ffffff;stroke-width:0.26458332"
           id="path1033"
           inkscape:connector-curvature="0" />
        <path
           d="m 143.29731,116.9664 q -0.0341,-0.0966 -0.0436,-0.28612 -0.11937,0.15538 -0.30506,0.24064 -0.1838,0.0834 -0.39033,0.0834 -0.29559,0 -0.47939,-0.16485 -0.1819,-0.16485 -0.1819,-0.41686 0,-0.29938 0.24822,-0.4737 0.25012,-0.17432 0.69539,-0.17432 h 0.41118 v -0.23306 q 0,-0.2198 -0.13643,-0.34486 -0.13453,-0.12695 -0.39412,-0.12695 -0.23685,0 -0.39222,0.12127 -0.15538,0.12127 -0.15538,0.2918 l -0.22737,-0.002 q 0,-0.24442 0.22737,-0.42254 0.22738,-0.18 0.55897,-0.18 0.34296,0 0.54002,0.17242 0.19895,0.17054 0.20464,0.4775 v 0.97013 q 0,0.29749 0.0625,0.44528 v 0.0227 z m -0.71244,-0.16295 q 0.22737,0 0.40548,-0.1099 0.18001,-0.1099 0.26149,-0.2937 v -0.45096 h -0.40549 q -0.33917,0.004 -0.53055,0.12506 -0.19137,0.11937 -0.19137,0.32969 0,0.17243 0.12695,0.28612 0.12885,0.11369 0.33349,0.11369 z"
           style="font-style:normal;font-variant:normal;font-weight:300;font-stretch:normal;font-family:Roboto;-inkscape-font-specification:'Roboto Light';fill:#ffffff;stroke-width:0.26458332"
           id="path1035"
           inkscape:connector-curvature="0" />
        <path
           d="m 144.29587,114.91622 0.008,0.35054 q 0.11558,-0.18948 0.28801,-0.28801 0.17243,-0.10042 0.38086,-0.10042 0.32969,0 0.49075,0.18569 0.16106,0.18569 0.16295,0.55707 v 1.34531 h -0.22548 v -1.3472 q -0.002,-0.27475 -0.11748,-0.40928 -0.11368,-0.13453 -0.36569,-0.13453 -0.21033,0 -0.37328,0.13263 -0.16106,0.13074 -0.23874,0.35433 v 1.40405 h -0.22549 v -2.05018 z"
           style="font-style:normal;font-variant:normal;font-weight:300;font-stretch:normal;font-family:Roboto;-inkscape-font-specification:'Roboto Light';fill:#ffffff;stroke-width:0.26458332"
           id="path1037"
           inkscape:connector-curvature="0" />
        <path
           d="m 146.96754,116.81292 q 0.23685,0 0.39602,-0.13264 0.16106,-0.13453 0.17432,-0.34674 h 0.2179 q -0.009,0.18758 -0.11748,0.34296 -0.108,0.15347 -0.28801,0.24064 -0.17811,0.0872 -0.38275,0.0872 -0.40359,0 -0.64044,-0.28043 -0.23495,-0.28044 -0.23495,-0.75414 v -0.0682 q 0,-0.30317 0.1061,-0.53623 0.10611,-0.23306 0.30317,-0.36001 0.19896,-0.12695 0.46423,-0.12695 0.33727,0 0.55518,0.20085 0.21979,0.20085 0.23495,0.52865 h -0.2179 q -0.0152,-0.24064 -0.17432,-0.38844 -0.15727,-0.14779 -0.39791,-0.14779 -0.30696,0 -0.47749,0.22169 -0.16864,0.22169 -0.16864,0.62149 v 0.0663 q 0,0.39223 0.16864,0.61202 0.17053,0.2198 0.47938,0.2198 z"
           style="font-style:normal;font-variant:normal;font-weight:300;font-stretch:normal;font-family:Roboto;-inkscape-font-specification:'Roboto Light';fill:#ffffff;stroke-width:0.26458332"
           id="path1039"
           inkscape:connector-curvature="0" />
        <path
           d="m 149.00446,117.0043 q -0.26149,0 -0.4737,-0.12885 -0.21033,-0.12885 -0.3278,-0.35812 -0.11748,-0.23116 -0.11748,-0.51728 v -0.0815 q 0,-0.29558 0.11369,-0.53244 0.11558,-0.23685 0.32022,-0.37138 0.20464,-0.13642 0.44338,-0.13642 0.37328,0 0.59118,0.2558 0.2198,0.2539 0.2198,0.69539 v 0.12695 h -1.46279 v 0.0436 q 0,0.34864 0.19895,0.58171 0.20085,0.23116 0.50402,0.23116 0.1819,0 0.32022,-0.0663 0.14022,-0.0663 0.25391,-0.21221 l 0.14211,0.108 q -0.25012,0.36191 -0.72571,0.36191 z m -0.0417,-1.9327 q -0.2558,0 -0.43201,0.18758 -0.17433,0.18759 -0.21222,0.50402 h 1.22973 v -0.0246 q -0.009,-0.29559 -0.16864,-0.48128 -0.15917,-0.18569 -0.41686,-0.18569 z"
           style="font-style:normal;font-variant:normal;font-weight:300;font-stretch:normal;font-family:Roboto;-inkscape-font-specification:'Roboto Light';fill:#ffffff;stroke-width:0.26458332"
           id="path1041"
           inkscape:connector-curvature="0" />
        <path
           d="m 152.73911,115.67793 h -1.28657 v 1.28847 h -0.23306 v -2.75883 h 1.70911 v 0.19895 h -1.47605 v 1.07246 h 1.28657 z"
           style="font-style:normal;font-variant:normal;font-weight:300;font-stretch:normal;font-family:Roboto;-inkscape-font-specification:'Roboto Light';fill:#ffffff;stroke-width:0.26458332"
           id="path1043"
           inkscape:connector-curvature="0" />
        <path
           d="m 153.18629,115.911 q 0,-0.29559 0.11369,-0.53244 0.11558,-0.23685 0.32401,-0.3676 0.21032,-0.13263 0.47559,-0.13263 0.40928,0 0.66318,0.28801 0.25391,0.28611 0.25391,0.75981 v 0.0474 q 0,0.29749 -0.11559,0.53623 -0.11368,0.23685 -0.32211,0.3657 -0.20843,0.12885 -0.4756,0.12885 -0.40738,0 -0.66318,-0.28612 -0.2539,-0.28801 -0.2539,-0.76171 z m 0.22737,0.0625 q 0,0.3676 0.18948,0.60445 0.19138,0.23495 0.50023,0.23495 0.30696,0 0.49644,-0.23495 0.19137,-0.23685 0.19137,-0.62339 v -0.0436 q 0,-0.23496 -0.0872,-0.43013 -0.0872,-0.19516 -0.24443,-0.30127 -0.15726,-0.108 -0.36001,-0.108 -0.30317,0 -0.49454,0.23874 -0.19138,0.23685 -0.19138,0.6215 z"
           style="font-style:normal;font-variant:normal;font-weight:300;font-stretch:normal;font-family:Roboto;-inkscape-font-specification:'Roboto Light';fill:#ffffff;stroke-width:0.26458332"
           id="path1045"
           inkscape:connector-curvature="0" />
        <path
           d="m 156.43398,115.10949 q -0.072,-0.0133 -0.15348,-0.0133 -0.21222,0 -0.36001,0.11937 -0.1459,0.11748 -0.20843,0.34296 v 1.40784 h -0.22548 v -2.05018 h 0.22169 l 0.004,0.32591 q 0.18,-0.3638 0.57791,-0.3638 0.0947,0 0.14969,0.0246 z"
           style="font-style:normal;font-variant:normal;font-weight:300;font-stretch:normal;font-family:Roboto;-inkscape-font-specification:'Roboto Light';fill:#ffffff;stroke-width:0.26458332"
           id="path1047"
           inkscape:connector-curvature="0" />
        <path
           d="m 124.35876,120.7507 q 0,-0.22927 -0.16106,-0.36191 -0.16106,-0.13453 -0.58928,-0.2539 -0.42823,-0.12127 -0.62529,-0.26338 -0.28043,-0.20085 -0.28043,-0.52675 0,-0.31644 0.25959,-0.5135 0.26148,-0.19895 0.66697,-0.19895 0.27475,0 0.49075,0.10611 0.21791,0.10611 0.33728,0.29559 0.11937,0.18948 0.11937,0.42254 h -0.23495 q 0,-0.28233 -0.19327,-0.45286 -0.19327,-0.17243 -0.51918,-0.17243 -0.31643,0 -0.50402,0.14211 -0.18758,0.14022 -0.18758,0.3676 0,0.21032 0.16864,0.34296 0.16863,0.13263 0.54001,0.23495 0.37139,0.10043 0.56276,0.21032 0.19138,0.10801 0.28801,0.25959 0.0966,0.15159 0.0966,0.35812 0,0.32591 -0.26149,0.52297 -0.25959,0.19706 -0.68592,0.19706 -0.2918,0 -0.53622,-0.10422 -0.24254,-0.10421 -0.36949,-0.2918 -0.12506,-0.18758 -0.12506,-0.43012 h 0.23306 q 0,0.2918 0.2179,0.46044 0.21791,0.16864 0.57981,0.16864 0.32212,0 0.51729,-0.14211 0.19516,-0.14211 0.19516,-0.37707 z"
           style="font-style:normal;font-variant:normal;font-weight:300;font-stretch:normal;font-family:Roboto;-inkscape-font-specification:'Roboto Light';fill:#ffffff;stroke-width:0.26458332"
           id="path1049"
           inkscape:connector-curvature="0" />
        <path
           d="m 125.24742,119.37886 0.008,0.33349 q 0.11369,-0.18569 0.28422,-0.27854 0.17053,-0.0928 0.37896,-0.0928 0.48507,0 0.61581,0.39791 0.1099,-0.19138 0.2937,-0.2937 0.18379,-0.10421 0.40549,-0.10421 0.65939,0 0.67265,0.72002 v 1.36805 h -0.22738 v -1.351 q -0.002,-0.27474 -0.11937,-0.40738 -0.11558,-0.13263 -0.37896,-0.13263 -0.24443,0.004 -0.41307,0.15916 -0.16863,0.15348 -0.18758,0.37517 v 1.35668 h -0.22738 v -1.36805 q -0.002,-0.26338 -0.12505,-0.39222 -0.12127,-0.13074 -0.37518,-0.13074 -0.21411,0 -0.36759,0.12316 -0.15348,0.12127 -0.22737,0.36191 v 1.40594 h -0.22738 v -2.05018 z"
           style="font-style:normal;font-variant:normal;font-weight:300;font-stretch:normal;font-family:Roboto;-inkscape-font-specification:'Roboto Light';fill:#ffffff;stroke-width:0.26458332"
           id="path1051"
           inkscape:connector-curvature="0" />
        <path
           d="m 129.776,121.42904 q -0.0341,-0.0966 -0.0436,-0.28612 -0.11937,0.15538 -0.30506,0.24064 -0.1838,0.0834 -0.39033,0.0834 -0.29559,0 -0.47939,-0.16485 -0.1819,-0.16485 -0.1819,-0.41686 0,-0.29938 0.24822,-0.4737 0.25011,-0.17432 0.69539,-0.17432 h 0.41118 v -0.23306 q 0,-0.2198 -0.13643,-0.34486 -0.13453,-0.12695 -0.39412,-0.12695 -0.23685,0 -0.39222,0.12127 -0.15538,0.12127 -0.15538,0.2918 l -0.22737,-0.002 q 0,-0.24443 0.22737,-0.42254 0.22738,-0.18 0.55897,-0.18 0.34296,0 0.54002,0.17242 0.19895,0.17054 0.20464,0.47749 v 0.97014 q 0,0.29749 0.0625,0.44528 v 0.0227 z m -0.71245,-0.16295 q 0.22738,0 0.40549,-0.1099 0.18001,-0.1099 0.26149,-0.2937 v -0.45096 h -0.40549 q -0.33917,0.004 -0.53055,0.12506 -0.19137,0.11937 -0.19137,0.32969 0,0.17243 0.12695,0.28612 0.12885,0.11369 0.33348,0.11369 z"
           style="font-style:normal;font-variant:normal;font-weight:300;font-stretch:normal;font-family:Roboto;-inkscape-font-specification:'Roboto Light';fill:#ffffff;stroke-width:0.26458332"
           id="path1053"
           inkscape:connector-curvature="0" />
        <path
           d="m 130.81246,121.42904 h -0.22738 v -2.91042 h 0.22738 z"
           style="font-style:normal;font-variant:normal;font-weight:300;font-stretch:normal;font-family:Roboto;-inkscape-font-specification:'Roboto Light';fill:#ffffff;stroke-width:0.26458332"
           id="path1055"
           inkscape:connector-curvature="0" />
        <path
           d="m 131.68407,121.42904 h -0.22738 v -2.91042 h 0.22738 z"
           style="font-style:normal;font-variant:normal;font-weight:300;font-stretch:normal;font-family:Roboto;-inkscape-font-specification:'Roboto Light';fill:#ffffff;stroke-width:0.26458332"
           id="path1057"
           inkscape:connector-curvature="0" />
        <path
           d="m 133.30223,121.42904 v -2.75883 h 0.81476 q 0.44339,0 0.67266,0.18379 0.22927,0.1819 0.22927,0.53813 0,0.21411 -0.11748,0.37327 -0.11558,0.15727 -0.31833,0.22548 0.24064,0.0531 0.38654,0.23685 0.1478,0.1838 0.1478,0.42444 0,0.3657 -0.23685,0.57223 -0.23496,0.20464 -0.6556,0.20464 z m 0.23306,-1.32636 v 1.1293 h 0.69918 q 0.29938,0 0.4737,-0.15158 0.17622,-0.15348 0.17622,-0.42444 0,-0.2558 -0.16864,-0.40359 -0.16674,-0.14969 -0.46233,-0.14969 z m 0,-0.19517 h 0.63665 q 0.2918,-0.006 0.45097,-0.13642 0.16105,-0.13264 0.16105,-0.38465 0,-0.26527 -0.16674,-0.39033 -0.16485,-0.12695 -0.50023,-0.12695 h -0.5817 z"
           style="font-style:normal;font-variant:normal;font-weight:300;font-stretch:normal;font-family:Roboto;-inkscape-font-specification:'Roboto Light';fill:#ffffff;stroke-width:0.26458332"
           id="path1059"
           inkscape:connector-curvature="0" />
        <path
           d="m 136.94783,121.16945 q -0.20464,0.29749 -0.65371,0.29749 -0.3278,0 -0.49833,-0.18949 -0.17053,-0.19137 -0.17432,-0.56465 v -1.33394 h 0.22548 v 1.30552 q 0,0.5855 0.4737,0.5855 0.49265,0 0.62339,-0.40739 v -1.48363 h 0.22737 v 2.05018 h -0.21979 z"
           style="font-style:normal;font-variant:normal;font-weight:300;font-stretch:normal;font-family:Roboto;-inkscape-font-specification:'Roboto Light';fill:#ffffff;stroke-width:0.26458332"
           id="path1061"
           inkscape:connector-curvature="0" />
        <path
           d="m 138.98664,120.90797 q 0,-0.16864 -0.13643,-0.27096 -0.13453,-0.10232 -0.40738,-0.15916 -0.27285,-0.0587 -0.42444,-0.13264 -0.14969,-0.0758 -0.22358,-0.18379 -0.072,-0.10801 -0.072,-0.26149 0,-0.24253 0.20275,-0.3998 0.20274,-0.15916 0.51917,-0.15916 0.34296,0 0.5495,0.17053 0.20842,0.16864 0.20842,0.44149 h -0.22737 q 0,-0.18001 -0.15159,-0.29938 -0.14969,-0.11937 -0.37896,-0.11937 -0.22358,0 -0.36001,0.10042 -0.13453,0.0985 -0.13453,0.25769 0,0.15348 0.11179,0.23875 0.11369,0.0834 0.41117,0.15348 0.29938,0.0701 0.44718,0.14969 0.14969,0.0796 0.22169,0.19137 0.072,0.1118 0.072,0.27096 0,0.25959 -0.21032,0.41496 -0.20843,0.15538 -0.5457,0.15538 -0.35812,0 -0.58171,-0.17243 -0.22169,-0.17432 -0.22169,-0.4396 h 0.22738 q 0.0133,0.19896 0.16674,0.31075 0.15537,0.1099 0.40928,0.1099 0.23685,0 0.38275,-0.10421 0.1459,-0.10422 0.1459,-0.26338 z"
           style="font-style:normal;font-variant:normal;font-weight:300;font-stretch:normal;font-family:Roboto;-inkscape-font-specification:'Roboto Light';fill:#ffffff;stroke-width:0.26458332"
           id="path1063"
           inkscape:connector-curvature="0" />
        <path
           d="m 139.97572,121.42904 h -0.22737 v -2.05018 h 0.22737 z m -0.26716,-2.64325 q 0,-0.0644 0.0417,-0.108 0.0417,-0.0455 0.11369,-0.0455 0.072,0 0.11369,0.0455 0.0436,0.0436 0.0436,0.108 0,0.0644 -0.0436,0.108 -0.0417,0.0436 -0.11369,0.0436 -0.072,0 -0.11369,-0.0436 -0.0417,-0.0436 -0.0417,-0.108 z"
           style="font-style:normal;font-variant:normal;font-weight:300;font-stretch:normal;font-family:Roboto;-inkscape-font-specification:'Roboto Light';fill:#ffffff;stroke-width:0.26458332"
           id="path1065"
           inkscape:connector-curvature="0" />
        <path
           d="m 140.80943,119.37886 0.008,0.35054 q 0.11559,-0.18948 0.28801,-0.28801 0.17243,-0.10042 0.38086,-0.10042 0.3297,0 0.49075,0.18569 0.16106,0.18569 0.16296,0.55707 v 1.34531 h -0.22549 v -1.34721 q -0.002,-0.27474 -0.11747,-0.40927 -0.11369,-0.13453 -0.3657,-0.13453 -0.21032,0 -0.37328,0.13263 -0.16105,0.13074 -0.23874,0.35433 v 1.40405 h -0.22548 v -2.05018 z"
           style="font-style:normal;font-variant:normal;font-weight:300;font-stretch:normal;font-family:Roboto;-inkscape-font-specification:'Roboto Light';fill:#ffffff;stroke-width:0.26458332"
           id="path1067"
           inkscape:connector-curvature="0" />
        <path
           d="m 143.51711,121.46694 q -0.26148,0 -0.4737,-0.12885 -0.21033,-0.12885 -0.3278,-0.35812 -0.11748,-0.23117 -0.11748,-0.51728 v -0.0815 q 0,-0.29559 0.11369,-0.53244 0.11558,-0.23685 0.32022,-0.37138 0.20464,-0.13642 0.44338,-0.13642 0.37328,0 0.59118,0.25579 0.2198,0.25391 0.2198,0.6954 v 0.12695 h -1.46279 v 0.0436 q 0,0.34864 0.19896,0.5817 0.20084,0.23117 0.50401,0.23117 0.1819,0 0.32022,-0.0663 0.14022,-0.0663 0.25391,-0.21222 l 0.14211,0.10801 q -0.25012,0.36191 -0.72571,0.36191 z m -0.0417,-1.9327 q -0.2558,0 -0.43201,0.18758 -0.17432,0.18759 -0.21222,0.50402 h 1.22973 v -0.0246 q -0.009,-0.29559 -0.16864,-0.48128 -0.15916,-0.18569 -0.41686,-0.18569 z"
           style="font-style:normal;font-variant:normal;font-weight:300;font-stretch:normal;font-family:Roboto;-inkscape-font-specification:'Roboto Light';fill:#ffffff;stroke-width:0.26458332"
           id="path1069"
           inkscape:connector-curvature="0" />
        <path
           d="m 145.95951,120.90797 q 0,-0.16864 -0.13643,-0.27096 -0.13453,-0.10232 -0.40738,-0.15916 -0.27285,-0.0587 -0.42443,-0.13264 -0.14969,-0.0758 -0.22359,-0.18379 -0.072,-0.10801 -0.072,-0.26149 0,-0.24253 0.20274,-0.3998 0.20274,-0.15916 0.51918,-0.15916 0.34296,0 0.54949,0.17053 0.20843,0.16864 0.20843,0.44149 h -0.22738 q 0,-0.18001 -0.15158,-0.29938 -0.14969,-0.11937 -0.37896,-0.11937 -0.22359,0 -0.36002,0.10042 -0.13453,0.0985 -0.13453,0.25769 0,0.15348 0.1118,0.23875 0.11368,0.0834 0.41117,0.15348 0.29938,0.0701 0.44717,0.14969 0.14969,0.0796 0.22169,0.19137 0.072,0.1118 0.072,0.27096 0,0.25959 -0.21033,0.41496 -0.20843,0.15538 -0.5457,0.15538 -0.35812,0 -0.5817,-0.17243 -0.2217,-0.17432 -0.2217,-0.4396 h 0.22738 q 0.0133,0.19896 0.16674,0.31075 0.15538,0.1099 0.40928,0.1099 0.23685,0 0.38275,-0.10421 0.1459,-0.10422 0.1459,-0.26338 z"
           style="font-style:normal;font-variant:normal;font-weight:300;font-stretch:normal;font-family:Roboto;-inkscape-font-specification:'Roboto Light';fill:#ffffff;stroke-width:0.26458332"
           id="path1071"
           inkscape:connector-curvature="0" />
        <path
           d="m 147.92252,120.90797 q 0,-0.16864 -0.13642,-0.27096 -0.13453,-0.10232 -0.40738,-0.15916 -0.27286,-0.0587 -0.42444,-0.13264 -0.14969,-0.0758 -0.22359,-0.18379 -0.072,-0.10801 -0.072,-0.26149 0,-0.24253 0.20274,-0.3998 0.20275,-0.15916 0.51918,-0.15916 0.34296,0 0.54949,0.17053 0.20843,0.16864 0.20843,0.44149 h -0.22737 q 0,-0.18001 -0.15159,-0.29938 -0.14969,-0.11937 -0.37896,-0.11937 -0.22359,0 -0.36001,0.10042 -0.13453,0.0985 -0.13453,0.25769 0,0.15348 0.11179,0.23875 0.11369,0.0834 0.41117,0.15348 0.29938,0.0701 0.44718,0.14969 0.14969,0.0796 0.22169,0.19137 0.072,0.1118 0.072,0.27096 0,0.25959 -0.21032,0.41496 -0.20843,0.15538 -0.54571,0.15538 -0.35811,0 -0.5817,-0.17243 -0.22169,-0.17432 -0.22169,-0.4396 h 0.22737 q 0.0133,0.19896 0.16675,0.31075 0.15537,0.1099 0.40927,0.1099 0.23685,0 0.38275,-0.10421 0.1459,-0.10422 0.1459,-0.26338 z"
           style="font-style:normal;font-variant:normal;font-weight:300;font-stretch:normal;font-family:Roboto;-inkscape-font-specification:'Roboto Light';fill:#ffffff;stroke-width:0.26458332"
           id="path1073"
           inkscape:connector-curvature="0" />
      </g>
    </g>
  </g>
</svg>
