<?xml version="1.0" encoding="UTF-8" standalone="no"?>
<!-- Created with Inkscape (http://www.inkscape.org/) -->

<svg
   xmlns:dc="http://purl.org/dc/elements/1.1/"
   xmlns:cc="http://creativecommons.org/ns#"
   xmlns:rdf="http://www.w3.org/1999/02/22-rdf-syntax-ns#"
   xmlns:svg="http://www.w3.org/2000/svg"
   xmlns="http://www.w3.org/2000/svg"
   xmlns:sodipodi="http://sodipodi.sourceforge.net/DTD/sodipodi-0.dtd"
   xmlns:inkscape="http://www.inkscape.org/namespaces/inkscape"
   width="79.375mm"
   height="14.665531mm"
   viewBox="0 0 79.374998 14.665531"
   version="1.1"
   id="svg2092"
   inkscape:version="0.92.2 (5c3e80d, 2017-08-06)"
   sodipodi:docname="drw.svg">
  <defs
     id="defs2086" />
  <sodipodi:namedview
     id="base"
     pagecolor="#ffffff"
     bordercolor="#666666"
     borderopacity="1.0"
     inkscape:pageopacity="0.0"
     inkscape:pageshadow="2"
     inkscape:zoom="0.98994949"
     inkscape:cx="139.88948"
     inkscape:cy="71.772504"
     inkscape:document-units="mm"
     inkscape:current-layer="layer1"
     showgrid="false"
     showguides="true"
     inkscape:guide-bbox="true"
     inkscape:measure-start="0,0"
     inkscape:measure-end="0,0"
     inkscape:window-width="1462"
     inkscape:window-height="787"
     inkscape:window-x="94"
     inkscape:window-y="73"
     inkscape:window-maximized="0"
     fit-margin-top="0"
     fit-margin-left="0"
     fit-margin-right="0"
     fit-margin-bottom="0" />
  <metadata
     id="metadata2089">
    <rdf:RDF>
      <cc:Work
         rdf:about="">
        <dc:format>image/svg+xml</dc:format>
        <dc:type
           rdf:resource="http://purl.org/dc/dcmitype/StillImage" />
        <dc:title></dc:title>
      </cc:Work>
    </rdf:RDF>
  </metadata>
  <g
     inkscape:label="Layer 1"
     inkscape:groupmode="layer"
     id="layer1"
     transform="translate(-57.77496,-108.38761)">
    <g
       style="fill:#ffffff;fill-opacity:1"
       id="g1451"
       transform="matrix(1.303487,0,0,1.303487,10.302871,2.8668175)"
       inkscape:export-xdpi="599.25549"
       inkscape:export-ydpi="599.25549">
      <path
         style="fill:#ffffff;fill-opacity:1;stroke-width:0.16380359"
         d="m 51.729313,87.808723 h 0.308934 c -0.173305,0.663077 -0.678147,1.371364 -1.823462,1.371364 -1.348759,0 -2.275559,-1.024756 -2.275559,-2.471469 0,-1.386433 0.919265,-2.433794 2.18514,-2.433794 0.580192,0 0.753496,0.158234 1.198059,0.158234 0.08288,0 0.143165,0 0.286329,-0.03014 0.06781,0.429493 0.173304,0.843916 0.369213,1.296014 h -0.444563 c -0.308933,-0.708287 -0.753497,-1.15285 -1.499458,-1.15285 -0.610332,0 -1.15285,0.542518 -1.15285,1.951556 0,1.371364 0.550053,2.381049 1.454249,2.381049 0.640472,0 1.137779,-0.316468 1.393968,-1.069965 z m 4.687954,-2.509143 v 0.241118 l -0.203444,0.02261 c -0.180839,0.02261 -0.308934,0.105489 -0.369213,0.271259 l -1.793322,4.754563 c -0.03768,0.08288 -0.06028,0.135629 -0.233584,0.135629 -0.195909,0 -0.248654,-0.05275 -0.210979,-0.135629 0.128094,-0.263724 0.700752,-1.431644 0.700752,-1.506993 0,-0.1507 -0.919266,-2.17007 -1.378899,-3.24757 -0.07535,-0.173304 -0.150699,-0.263724 -0.271258,-0.271259 l -0.226049,-0.02261 V 85.29958 c 0.587727,0.02261 1.243269,0.02261 1.770716,0 v 0.241118 l -0.233584,0.02261 c -0.135629,0.0075 -0.241118,0.105489 -0.173304,0.271259 l 0.926801,2.222815 0.821311,-2.222815 c 0.06028,-0.173304 -0.09795,-0.256189 -0.241119,-0.271259 l -0.226049,-0.02261 V 85.29958 c 0.429493,0.02261 0.813777,0.02261 1.341224,0 z m 2.661049,-0.06028 c 0.798706,0 1.612482,0.648007 1.612482,1.98923 0,1.296014 -0.851451,1.944021 -1.620018,1.944021 -0.632937,0 -0.776101,-0.421957 -1.137779,-0.421957 -0.188374,0 -0.331538,0.113024 -0.384284,0.324003 h -0.143164 c -0.120559,0 -0.173304,-0.06781 -0.173304,-0.180839 v -4.083951 c 0,-0.263724 -0.165769,-0.331539 -0.459633,-0.286329 v -0.241119 c 0.663077,-0.120559 0.95694,-0.414423 1.13778,-0.414423 0.120559,0 0.173304,0.06781 0.173304,0.218514 v 1.604948 C 58.272074,85.472884 58.596078,85.2393 59.078316,85.2393 Z m -0.09042,3.684598 c 0.565122,0 0.783636,-0.534983 0.783636,-1.484389 0,-1.115174 -0.308934,-1.92895 -0.89666,-1.92895 -0.354144,0 -0.632938,0.256188 -0.791172,0.474702 v 2.102255 c 0.01507,0.376749 0.452098,0.836382 0.904196,0.836382 z m 5.358566,-0.678147 c 0.07535,0 0.105489,0.07535 0.05275,0.173304 -0.203444,0.421958 -0.610332,0.730892 -1.265874,0.730892 -1.009686,0 -1.823462,-0.685682 -1.823462,-1.966626 0,-1.250804 0.843916,-1.944021 1.733042,-1.944021 0.866521,0 1.552203,0.602797 1.552203,1.552202 0,0.286329 -0.113025,0.474704 -0.406888,0.474704 h -1.974161 c 0.0075,0.949405 0.346608,1.627552 1.032291,1.627552 0.384282,0 0.655541,-0.165769 0.85145,-0.534983 0.03768,-0.06781 0.06028,-0.113024 0.143165,-0.113024 z m -0.580193,-1.265874 c 0,-0.926801 -0.203444,-1.484389 -0.723357,-1.484389 -0.534982,0 -0.82131,0.557588 -0.828846,1.484389 z m 3.738549,-1.755647 c 0.369213,0 0.617867,0.195909 0.617867,0.459632 0,0.263725 -0.188374,0.414424 -0.391819,0.414424 -0.346608,0 -0.339073,-0.301399 -0.663076,-0.301399 -0.437028,0 -0.602798,0.557587 -0.663077,0.730892 v 2.026905 c 0,0.188375 0.210979,0.248654 0.459633,0.278794 v 0.241119 c -0.587728,-0.03014 -1.175455,-0.03014 -1.763182,0 v -0.241119 c 0.256189,-0.03014 0.459632,-0.09042 0.459632,-0.278794 v -2.396118 c 0,-0.263724 -0.165769,-0.324004 -0.459632,-0.286329 v -0.241119 c 0.663076,-0.120559 0.949405,-0.421958 1.122709,-0.421958 0.128095,0 0.203445,0.09042 0.18084,0.233584 l -0.113025,0.753496 c 0.271259,-0.617867 0.625402,-0.97201 1.21313,-0.97201 z m 4.34888,-0.693217 0.105489,0.851451 H 71.695464 L 71.612574,85.22423 C 71.39406,84.832412 71.205686,84.674178 70.813868,84.674178 h -0.783636 c -0.06028,0 -0.09042,0.03014 -0.09042,0.09042 v 1.778252 h 0.896661 c 0.376748,0 0.459633,-0.173304 0.527447,-0.482238 h 0.226049 c -0.03768,0.429493 -0.03768,0.821311 0,1.243269 H 71.36392 c -0.06781,-0.301399 -0.150699,-0.482238 -0.527447,-0.482238 h -0.896661 v 1.740578 c 0,0.188374 0.128094,0.241118 0.527448,0.271258 v 0.241119 c -0.648007,-0.02261 -1.30355,-0.02261 -1.951557,0 v -0.241119 c 0.406889,-0.03014 0.534983,-0.08288 0.534983,-0.271258 v -3.654458 c 0,-0.188375 -0.128094,-0.24112 -0.534983,-0.271259 v -0.241119 h 3.209895 c 0.09795,0 0.113025,0.02261 0.128095,0.135629 z m 2.434999,0.708287 c 0.866522,0 1.763182,0.648007 1.763182,1.913881 0,1.303549 -0.89666,1.996766 -1.748112,1.996766 -0.866521,0 -1.763181,-0.693217 -1.763181,-1.936486 0,-1.326154 0.89666,-1.974161 1.748111,-1.974161 z m 0.836382,2.132395 c 0,-1.12271 -0.361679,-1.876207 -0.941871,-1.876207 -0.459633,0 -0.715822,0.489773 -0.715822,1.499459 0,1.130245 0.361678,1.898811 0.934336,1.898811 0.467168,0 0.723357,-0.504843 0.723357,-1.522063 z m 3.836503,-2.147465 c 0.369213,0 0.617866,0.195909 0.617866,0.459632 0,0.263725 -0.188374,0.414424 -0.391818,0.414424 -0.346608,0 -0.339073,-0.301399 -0.663076,-0.301399 -0.437028,0 -0.602798,0.557587 -0.663078,0.730892 v 2.026905 c 0,0.188375 0.210979,0.248654 0.459633,0.278794 v 0.241119 c -0.587727,-0.03014 -1.175454,-0.03014 -1.763181,0 v -0.241119 c 0.256188,-0.03014 0.459632,-0.09042 0.459632,-0.278794 v -2.396118 c 0,-0.263724 -0.165769,-0.324004 -0.459632,-0.286329 v -0.241119 c 0.663076,-0.120559 0.949405,-0.421958 1.122709,-0.421958 0.128095,0 0.203444,0.09042 0.180839,0.233584 l -0.113024,0.753496 c 0.271259,-0.617867 0.625402,-0.97201 1.21313,-0.97201 z m 3.037796,3.631853 c -0.143165,0.135629 -0.421958,0.271259 -0.730891,0.271259 -0.572658,0 -0.964476,-0.293864 -0.964476,-1.039826 v -2.509143 h -0.324004 c -0.05275,0 -0.08289,-0.03768 -0.08289,-0.09042 v -0.10549 c 0,-0.05275 0.03014,-0.08288 0.08289,-0.08288 0.512378,0 0.723357,-0.361679 0.806242,-1.024756 h 0.369213 v 1.024756 h 0.768566 c 0.05274,0 0.08288,0.03014 0.08288,0.08288 v 0.10549 c 0,0.05275 -0.03014,0.09042 -0.08288,0.09042 h -0.768566 v 2.652308 c 0,0.301399 0.06781,0.565122 0.376748,0.565122 0.203444,0 0.376748,-0.128094 0.467168,-0.241119 z m 2.917236,-3.631853 c 0.369216,0 0.617866,0.195909 0.617866,0.459632 0,0.263725 -0.188374,0.414424 -0.391816,0.414424 -0.346609,0 -0.339072,-0.301399 -0.663079,-0.301399 -0.437024,0 -0.602795,0.557587 -0.663075,0.730892 v 2.026905 c 0,0.188375 0.210981,0.248654 0.459632,0.278794 v 0.241119 c -0.587726,-0.03014 -1.175454,-0.03014 -1.763181,0 v -0.241119 c 0.256189,-0.03014 0.459633,-0.09042 0.459633,-0.278794 v -2.396118 c 0,-0.263724 -0.165769,-0.324004 -0.459633,-0.286329 v -0.241119 c 0.663077,-0.120559 0.949406,-0.421958 1.12271,-0.421958 0.128094,0 0.203444,0.09042 0.180839,0.233584 l -0.113025,0.753496 c 0.271259,-0.617867 0.625402,-0.97201 1.213129,-0.97201 z m 4.085156,3.021521 c 0.07535,0 0.10549,0.07535 0.05276,0.173304 -0.203443,0.421958 -0.610328,0.730892 -1.26587,0.730892 -1.009687,0 -1.823464,-0.685682 -1.823464,-1.966626 0,-1.250804 0.843915,-1.944021 1.733043,-1.944021 0.866522,0 1.552202,0.602797 1.552202,1.552202 0,0.286329 -0.113027,0.474704 -0.406891,0.474704 h -1.974157 c 0.0075,0.949405 0.346609,1.627552 1.032289,1.627552 0.384285,0 0.655542,-0.165769 0.851453,-0.534983 0.03769,-0.06781 0.06028,-0.113024 0.14316,-0.113024 z m -0.58019,-1.265874 c 0,-0.926801 -0.203443,-1.484389 -0.723356,-1.484389 -0.534982,0 -0.821314,0.557588 -0.828846,1.484389 z m 4.130363,1.06243 c 0,0.655542 -0.632935,1.12271 -1.198055,1.12271 -0.504844,0 -0.783639,-0.263724 -1.009688,-0.263724 -0.10549,0 -0.165767,0.06028 -0.173305,0.165769 h -0.241118 l -0.09042,-1.024755 h 0.120559 c 0.09796,0 0.180842,0.01507 0.21098,0.120559 0.113028,0.414423 0.685686,0.761032 1.085034,0.761032 0.346609,0 0.565127,-0.233584 0.565127,-0.550053 0,-0.406888 -0.354147,-0.580192 -0.87406,-0.843916 -0.527444,-0.263723 -1.115172,-0.610332 -1.115172,-1.273409 0,-0.572658 0.489775,-1.01722 1.137779,-1.01722 0.497306,0 0.663079,0.210979 0.858984,0.210979 0.09796,0 0.158236,-0.05275 0.180842,-0.150699 h 0.248651 l 0.06782,0.98708 h -0.128097 c -0.09795,0 -0.150698,-0.03014 -0.195911,-0.12056 -0.188374,-0.421957 -0.572658,-0.700751 -0.919267,-0.700751 -0.346603,0 -0.550052,0.248654 -0.550052,0.534982 0,0.354143 0.263726,0.527448 0.693218,0.738427 0.474705,0.226049 1.326152,0.572657 1.326152,1.303549 z m 3.263847,0 c 0,0.655542 -0.632935,1.12271 -1.198061,1.12271 -0.504838,0 -0.783633,-0.263724 -1.009682,-0.263724 -0.10549,0 -0.165767,0.06028 -0.173304,0.165769 h -0.241119 l -0.09042,-1.024755 h 0.120559 c 0.09795,0 0.180842,0.01507 0.210981,0.120559 0.113021,0.414423 0.68568,0.761032 1.085033,0.761032 0.346609,0 0.565121,-0.233584 0.565121,-0.550053 0,-0.406888 -0.35414,-0.580192 -0.874053,-0.843916 -0.527445,-0.263723 -1.115173,-0.610332 -1.115173,-1.273409 0,-0.572658 0.489769,-1.01722 1.137779,-1.01722 0.497307,0 0.663074,0.210979 0.858985,0.210979 0.09795,0 0.158235,-0.05275 0.180841,-0.150699 h 0.248651 l 0.06781,0.98708 H 95.46165 c -0.09796,0 -0.150703,-0.03014 -0.195911,-0.12056 -0.188374,-0.421957 -0.572658,-0.700751 -0.919267,-0.700751 -0.346609,0 -0.550051,0.248654 -0.550051,0.534982 0,0.354143 0.263725,0.527448 0.693217,0.738427 0.4747,0.226049 1.326152,0.572657 1.326152,1.303549 z"
         id="path1391"
         inkscape:connector-curvature="0" />
      <rect
         style="opacity:1;fill:#ffffff;fill-opacity:1;stroke:none;stroke-width:0.5745188;stroke-linecap:butt;stroke-linejoin:miter;stroke-miterlimit:4;stroke-dasharray:none;stroke-dashoffset:0;stroke-opacity:1;paint-order:normal"
         id="rect1393"
         width="1.1969142"
         height="1.1969142"
         x="36.419304"
         y="80.952698"
         ry="0.30447176" />
      <rect
         style="opacity:1;fill:#ffffff;fill-opacity:1;stroke:none;stroke-width:0.5745188;stroke-linecap:butt;stroke-linejoin:miter;stroke-miterlimit:4;stroke-dasharray:none;stroke-dashoffset:0;stroke-opacity:1;paint-order:normal"
         id="rect1395"
         width="1.1969142"
         height="1.1969142"
         x="39.77066"
         y="80.952698"
         ry="0.30447176" />
      <rect
         style="opacity:1;fill:#ffffff;fill-opacity:1;stroke:none;stroke-width:0.5745188;stroke-linecap:butt;stroke-linejoin:miter;stroke-miterlimit:4;stroke-dasharray:none;stroke-dashoffset:0;stroke-opacity:1;paint-order:normal"
         id="rect1397"
         width="1.1969142"
         height="1.1969142"
         x="43.122028"
         y="80.952698"
         ry="0.30447176" />
      <rect
         ry="0.30447176"
         y="82.628372"
         x="36.419304"
         height="1.1969142"
         width="1.1969142"
         id="rect1399"
         style="opacity:1;fill:#ffffff;fill-opacity:1;stroke:none;stroke-width:0.5745188;stroke-linecap:butt;stroke-linejoin:miter;stroke-miterlimit:4;stroke-dasharray:none;stroke-dashoffset:0;stroke-opacity:1;paint-order:normal" />
      <rect
         style="opacity:1;fill:#ffffff;fill-opacity:1;stroke:none;stroke-width:0.5745188;stroke-linecap:butt;stroke-linejoin:miter;stroke-miterlimit:4;stroke-dasharray:none;stroke-dashoffset:0;stroke-opacity:1;paint-order:normal"
         id="rect1401"
         width="1.1969142"
         height="1.1969142"
         x="38.094986"
         y="82.628372"
         ry="0.30447176" />
      <rect
         ry="0.30447176"
         y="82.628372"
         x="39.77066"
         height="1.1969142"
         width="1.1969142"
         id="rect1403"
         style="opacity:1;fill:#ffffff;fill-opacity:1;stroke:none;stroke-width:0.5745188;stroke-linecap:butt;stroke-linejoin:miter;stroke-miterlimit:4;stroke-dasharray:none;stroke-dashoffset:0;stroke-opacity:1;paint-order:normal" />
      <rect
         style="opacity:1;fill:#ffffff;fill-opacity:1;stroke:none;stroke-width:0.5745188;stroke-linecap:butt;stroke-linejoin:miter;stroke-miterlimit:4;stroke-dasharray:none;stroke-dashoffset:0;stroke-opacity:1;paint-order:normal"
         id="rect1405"
         width="1.1969142"
         height="1.1969142"
         x="41.446342"
         y="82.628372"
         ry="0.30447176" />
      <rect
         ry="0.30447176"
         y="82.628372"
         x="43.122028"
         height="1.1969142"
         width="1.1969142"
         id="rect1407"
         style="opacity:1;fill:#ffffff;fill-opacity:1;stroke:none;stroke-width:0.5745188;stroke-linecap:butt;stroke-linejoin:miter;stroke-miterlimit:4;stroke-dasharray:none;stroke-dashoffset:0;stroke-opacity:1;paint-order:normal" />
      <rect
         ry="0.30447176"
         y="84.304054"
         x="38.094986"
         height="1.1969142"
         width="1.1969142"
         id="rect1409"
         style="opacity:1;fill:#ffffff;fill-opacity:1;stroke:none;stroke-width:0.5745188;stroke-linecap:butt;stroke-linejoin:miter;stroke-miterlimit:4;stroke-dasharray:none;stroke-dashoffset:0;stroke-opacity:1;paint-order:normal" />
      <rect
         style="opacity:1;fill:#ffffff;fill-opacity:1;stroke:none;stroke-width:0.5745188;stroke-linecap:butt;stroke-linejoin:miter;stroke-miterlimit:4;stroke-dasharray:none;stroke-dashoffset:0;stroke-opacity:1;paint-order:normal"
         id="rect1411"
         width="1.1969142"
         height="1.1969142"
         x="39.77066"
         y="84.304054"
         ry="0.30447176" />
      <rect
         ry="0.30447176"
         y="84.304054"
         x="41.446342"
         height="1.1969142"
         width="1.1969142"
         id="rect1413"
         style="opacity:1;fill:#ffffff;fill-opacity:1;stroke:none;stroke-width:0.5745188;stroke-linecap:butt;stroke-linejoin:miter;stroke-miterlimit:4;stroke-dasharray:none;stroke-dashoffset:0;stroke-opacity:1;paint-order:normal" />
      <rect
         style="opacity:1;fill:#ffffff;fill-opacity:1;stroke:none;stroke-width:0.5745188;stroke-linecap:butt;stroke-linejoin:miter;stroke-miterlimit:4;stroke-dasharray:none;stroke-dashoffset:0;stroke-opacity:1;paint-order:normal"
         id="rect1415"
         width="1.1969142"
         height="1.1969142"
         x="38.094986"
         y="85.979729"
         ry="0.30447176" />
      <rect
         ry="0.30447176"
         y="85.979729"
         x="39.77066"
         height="1.1969142"
         width="1.1969142"
         id="rect1417"
         style="opacity:1;fill:#ffffff;fill-opacity:1;stroke:none;stroke-width:0.5745188;stroke-linecap:butt;stroke-linejoin:miter;stroke-miterlimit:4;stroke-dasharray:none;stroke-dashoffset:0;stroke-opacity:1;paint-order:normal" />
      <rect
         style="opacity:1;fill:#ffffff;fill-opacity:1;stroke:none;stroke-width:0.5745188;stroke-linecap:butt;stroke-linejoin:miter;stroke-miterlimit:4;stroke-dasharray:none;stroke-dashoffset:0;stroke-opacity:1;paint-order:normal"
         id="rect1419"
         width="1.1969142"
         height="1.1969142"
         x="41.446342"
         y="85.979729"
         ry="0.30447176" />
      <rect
         ry="0.30447176"
         y="87.655411"
         x="38.094986"
         height="1.1969142"
         width="1.1969142"
         id="rect1421"
         style="opacity:1;fill:#ffffff;fill-opacity:1;stroke:none;stroke-width:0.5745188;stroke-linecap:butt;stroke-linejoin:miter;stroke-miterlimit:4;stroke-dasharray:none;stroke-dashoffset:0;stroke-opacity:1;paint-order:normal" />
      <rect
         style="opacity:1;fill:#ffffff;fill-opacity:1;stroke:none;stroke-width:0.5745188;stroke-linecap:butt;stroke-linejoin:miter;stroke-miterlimit:4;stroke-dasharray:none;stroke-dashoffset:0;stroke-opacity:1;paint-order:normal"
         id="rect1423"
         width="1.1969142"
         height="1.1969142"
         x="39.77066"
         y="87.655411"
         ry="0.30447176" />
      <rect
         ry="0.30447176"
         y="87.655411"
         x="41.446342"
         height="1.1969142"
         width="1.1969142"
         id="rect1425"
         style="opacity:1;fill:#ffffff;fill-opacity:1;stroke:none;stroke-width:0.5745188;stroke-linecap:butt;stroke-linejoin:miter;stroke-miterlimit:4;stroke-dasharray:none;stroke-dashoffset:0;stroke-opacity:1;paint-order:normal" />
      <rect
         ry="0.30447176"
         y="89.3311"
         x="36.419304"
         height="1.1969142"
         width="1.1969142"
         id="rect1427"
         style="opacity:1;fill:#ffffff;fill-opacity:1;stroke:none;stroke-width:0.5745188;stroke-linecap:butt;stroke-linejoin:miter;stroke-miterlimit:4;stroke-dasharray:none;stroke-dashoffset:0;stroke-opacity:1;paint-order:normal" />
      <rect
         style="opacity:1;fill:#ffffff;fill-opacity:1;stroke:none;stroke-width:0.5745188;stroke-linecap:butt;stroke-linejoin:miter;stroke-miterlimit:4;stroke-dasharray:none;stroke-dashoffset:0;stroke-opacity:1;paint-order:normal"
         id="rect1429"
         width="1.1969142"
         height="1.1969142"
         x="38.094986"
         y="89.3311"
         ry="0.30447176" />
      <rect
         ry="0.30447176"
         y="89.3311"
         x="39.77066"
         height="1.1969142"
         width="1.1969142"
         id="rect1431"
         style="opacity:1;fill:#ffffff;fill-opacity:1;stroke:none;stroke-width:0.5745188;stroke-linecap:butt;stroke-linejoin:miter;stroke-miterlimit:4;stroke-dasharray:none;stroke-dashoffset:0;stroke-opacity:1;paint-order:normal" />
      <rect
         style="opacity:1;fill:#ffffff;fill-opacity:1;stroke:none;stroke-width:0.5745188;stroke-linecap:butt;stroke-linejoin:miter;stroke-miterlimit:4;stroke-dasharray:none;stroke-dashoffset:0;stroke-opacity:1;paint-order:normal"
         id="rect1433"
         width="1.1969142"
         height="1.1969142"
         x="41.446342"
         y="89.3311"
         ry="0.30447176" />
      <rect
         ry="0.30447176"
         y="89.3311"
         x="43.122028"
         height="1.1969142"
         width="1.1969142"
         id="rect1435"
         style="opacity:1;fill:#ffffff;fill-opacity:1;stroke:none;stroke-width:0.5745188;stroke-linecap:butt;stroke-linejoin:miter;stroke-miterlimit:4;stroke-dasharray:none;stroke-dashoffset:0;stroke-opacity:1;paint-order:normal" />
      <rect
         style="opacity:1;fill:#ffffff;fill-opacity:1;stroke:none;stroke-width:0.5745188;stroke-linecap:butt;stroke-linejoin:miter;stroke-miterlimit:4;stroke-dasharray:none;stroke-dashoffset:0;stroke-opacity:1;paint-order:normal"
         id="rect1437"
         width="1.1969142"
         height="1.1969142"
         x="36.419304"
         y="91.006783"
         ry="0.30447176" />
      <rect
         ry="0.30447176"
         y="91.006783"
         x="38.094986"
         height="1.1969142"
         width="1.1969142"
         id="rect1439"
         style="opacity:1;fill:#ffffff;fill-opacity:1;stroke:none;stroke-width:0.5745188;stroke-linecap:butt;stroke-linejoin:miter;stroke-miterlimit:4;stroke-dasharray:none;stroke-dashoffset:0;stroke-opacity:1;paint-order:normal" />
      <rect
         style="opacity:1;fill:#ffffff;fill-opacity:1;stroke:none;stroke-width:0.5745188;stroke-linecap:butt;stroke-linejoin:miter;stroke-miterlimit:4;stroke-dasharray:none;stroke-dashoffset:0;stroke-opacity:1;paint-order:normal"
         id="rect1441"
         width="1.1969142"
         height="1.1969142"
         x="39.77066"
         y="91.006783"
         ry="0.30447176" />
      <rect
         ry="0.30447176"
         y="91.006783"
         x="41.446342"
         height="1.1969142"
         width="1.1969142"
         id="rect1443"
         style="opacity:1;fill:#ffffff;fill-opacity:1;stroke:none;stroke-width:0.5745188;stroke-linecap:butt;stroke-linejoin:miter;stroke-miterlimit:4;stroke-dasharray:none;stroke-dashoffset:0;stroke-opacity:1;paint-order:normal" />
      <rect
         style="opacity:1;fill:#ffffff;fill-opacity:1;stroke:none;stroke-width:0.5745188;stroke-linecap:butt;stroke-linejoin:miter;stroke-miterlimit:4;stroke-dasharray:none;stroke-dashoffset:0;stroke-opacity:1;paint-order:normal"
         id="rect1445"
         width="1.1969142"
         height="1.1969142"
         x="43.122028"
         y="91.006783"
         ry="0.30447176" />
      <path
         d="m 96.419657,83.952674 h -0.250986 v 0.696111 h -0.102435 v -0.696111 h -0.250451 v -0.08473 h 0.603872 z"
         style="font-style:normal;font-variant:normal;font-weight:normal;font-stretch:normal;font-size:medium;line-height:125%;font-family:Roboto;-inkscape-font-specification:Roboto;letter-spacing:0px;word-spacing:0px;fill:#ffffff;fill-opacity:1;stroke:none;stroke-width:0.02745833000000000px;stroke-linecap:butt;stroke-linejoin:miter;stroke-opacity:1"
         id="path1447"
         inkscape:connector-curvature="0" />
      <path
         d="m 96.669568,83.867939 0.255278,0.637119 0.255273,-0.637119 h 0.13354 v 0.780846 h -0.10297 v -0.304079 l 0.0097,-0.328213 -0.256349,0.632292 H 96.8852 l -0.255814,-0.630683 0.01018,0.326604 v 0.304079 h -0.10297 v -0.780846 z"
         style="font-style:normal;font-variant:normal;font-weight:normal;font-stretch:normal;font-size:medium;line-height:125%;font-family:Roboto;-inkscape-font-specification:Roboto;letter-spacing:0px;word-spacing:0px;fill:#ffffff;fill-opacity:1;stroke:none;stroke-width:0.02745833000000000px;stroke-linecap:butt;stroke-linejoin:miter;stroke-opacity:1"
         id="path1449"
         inkscape:connector-curvature="0" />
    </g>
  </g>
</svg>
